REM DIRINDEX 1\2\4,1\2\5,1\2\6,1\3\7,1\3\8,1\3\9,1\3\10
REM DIRNAME folder01,folder02,folder03,folder04,folder05,folder06,folder07,folder08,folder09,folder10
TITLE ""
FILE "b_110.mp3" MP3
  TRACK 01 AUDIO
    TITLE "0:"
    INDEX 01 00:00:00
  TRACK 02 AUDIO
    TITLE "7:cjc057_07003"
    INDEX 01 00:00:13
  TRACK 03 AUDIO
    TITLE "0:"
    INDEX 01 00:01:42
  TRACK 04 AUDIO
    TITLE "8:cjc057_07004"
    INDEX 01 00:01:69
  TRACK 05 AUDIO
    TITLE "0:"
    INDEX 01 00:05:40
  TRACK 06 AUDIO
    TITLE "7:cjc057_07005"
    INDEX 01 00:06:45
  TRACK 07 AUDIO
    TITLE "0:"
    INDEX 01 00:07:60
  TRACK 08 AUDIO
    TITLE "8:cjc057_07006"
    INDEX 01 00:08:15
  TRACK 09 AUDIO
    TITLE "0:"
    INDEX 01 00:12:30
  TRACK 10 AUDIO
    TITLE "7:cjc057_07007"
    INDEX 01 00:13:33
  TRACK 11 AUDIO
    TITLE "0:"
    INDEX 01 00:14:70
  TRACK 12 AUDIO
    TITLE "8:cjc057_07008"
    INDEX 01 00:15:25
  TRACK 13 AUDIO
    TITLE "0:"
    INDEX 01 00:18:01
  TRACK 14 AUDIO
    TITLE "7:cjc057_07009"
    INDEX 01 00:19:05
  TRACK 15 AUDIO
    TITLE "0:"
    INDEX 01 00:20:45
  TRACK 16 AUDIO
    TITLE "8:cjc057_07010"
    INDEX 01 00:21:00
  TRACK 17 AUDIO
    TITLE "0:"
    INDEX 01 00:23:14
  TRACK 18 AUDIO
    TITLE "7:cjc057_07011"
    INDEX 01 00:24:20
  TRACK 19 AUDIO
    TITLE "0:"
    INDEX 01 00:25:48
  TRACK 20 AUDIO
    TITLE "8:cjc057_07012"
    INDEX 01 00:25:74
  TRACK 21 AUDIO
    TITLE "0:"
    INDEX 01 00:28:21
  TRACK 22 AUDIO
    TITLE "7:cjc057_07013"
    INDEX 01 00:29:21
  TRACK 23 AUDIO
    TITLE "0:"
    INDEX 01 00:30:48
  TRACK 24 AUDIO
    TITLE "8:cjc057_07014"
    INDEX 01 00:31:04
  TRACK 25 AUDIO
    TITLE "0:"
    INDEX 01 00:33:30
  TRACK 26 AUDIO
    TITLE "7:cjc057_07015"
    INDEX 01 00:34:34
  TRACK 27 AUDIO
    TITLE "0:"
    INDEX 01 00:35:43
  TRACK 28 AUDIO
    TITLE "8:cjc057_07016"
    INDEX 01 00:35:74
  TRACK 29 AUDIO
    TITLE "0:"
    INDEX 01 00:39:43
  TRACK 30 AUDIO
    TITLE "7:cjc057_07017"
    INDEX 01 00:40:48
  TRACK 31 AUDIO
    TITLE "0:"
    INDEX 01 00:41:69
  TRACK 32 AUDIO
    TITLE "8:cjc057_07018"
    INDEX 01 00:42:23
  TRACK 33 AUDIO
    TITLE "0:"
    INDEX 01 00:45:55
  TRACK 34 AUDIO
    TITLE "7:cjc057_07019"
    INDEX 01 00:46:60
  TRACK 35 AUDIO
    TITLE "0:"
    INDEX 01 00:48:14
  TRACK 36 AUDIO
    TITLE "8:cjc057_07020"
    INDEX 01 00:48:42
  TRACK 37 AUDIO
    TITLE "0:"
    INDEX 01 00:50:56
  TRACK 38 AUDIO
    TITLE "7:cjc057_07021"
    INDEX 01 00:51:60
  TRACK 39 AUDIO
    TITLE "0:"
    INDEX 01 00:53:00
  TRACK 40 AUDIO
    TITLE "8:cjc057_07022"
    INDEX 01 00:53:25
  TRACK 41 AUDIO
    TITLE "0:"
    INDEX 01 00:54:38
  TRACK 42 AUDIO
    TITLE "7:cjc057_07023"
    INDEX 01 00:55:44
  TRACK 43 AUDIO
    TITLE "0:"
    INDEX 01 00:57:05
  TRACK 44 AUDIO
    TITLE "8:cjc057_07024"
    INDEX 01 00:57:31
  TRACK 45 AUDIO
    TITLE "0:"
    INDEX 01 00:59:59
  TRACK 46 AUDIO
    TITLE "7:cjc057_07025"
    INDEX 01 01:00:62
  TRACK 47 AUDIO
    TITLE "0:"
    INDEX 01 01:02:06
  TRACK 48 AUDIO
    TITLE "8:cjc057_07026"
    INDEX 01 01:02:36
  TRACK 49 AUDIO
    TITLE "0:"
    INDEX 01 01:04:31
  TRACK 50 AUDIO
    TITLE "7:cjc057_07027"
    INDEX 01 01:05:36
  TRACK 51 AUDIO
    TITLE "0:"
    INDEX 01 01:06:63
  TRACK 52 AUDIO
    TITLE "8:cjc057_07028"
    INDEX 01 01:07:17
  TRACK 53 AUDIO
    TITLE "0:"
    INDEX 01 01:08:60
  TRACK 54 AUDIO
    TITLE "7:cjc057_07029"
    INDEX 01 01:09:65
  TRACK 55 AUDIO
    TITLE "0:"
    INDEX 01 01:11:37
  TRACK 56 AUDIO
    TITLE "8:cjc057_07030"
    INDEX 01 01:11:68
  TRACK 57 AUDIO
    TITLE "0:"
    INDEX 01 01:13:16
  TRACK 58 AUDIO
    TITLE "7:cjc057_07031"
    INDEX 01 01:14:19
  TRACK 59 AUDIO
    TITLE "0:"
    INDEX 01 01:15:39
  TRACK 60 AUDIO
    TITLE "8:cjc057_07032"
    INDEX 01 01:15:68
  TRACK 61 AUDIO
    TITLE "0:"
    INDEX 01 01:19:07
  TRACK 62 AUDIO
    TITLE "7:cjc057_07033"
    INDEX 01 01:20:10
  TRACK 63 AUDIO
    TITLE "0:"
    INDEX 01 01:21:35
  TRACK 64 AUDIO
    TITLE "8:cjc057_07034"
    INDEX 01 01:21:65
  TRACK 65 AUDIO
    TITLE "0:"
    INDEX 01 01:25:09
  TRACK 66 AUDIO
    TITLE "7:cjc057_07035"
    INDEX 01 01:26:09
  TRACK 67 AUDIO
    TITLE "0:"
    INDEX 01 01:27:63
  TRACK 68 AUDIO
    TITLE "8:cjc057_07036"
    INDEX 01 01:28:18
  TRACK 69 AUDIO
    TITLE "0:"
    INDEX 01 01:30:36
  TRACK 70 AUDIO
    TITLE "7:cjc057_07037"
    INDEX 01 01:31:41
  TRACK 71 AUDIO
    TITLE "0:"
    INDEX 01 01:32:66
  TRACK 72 AUDIO
    TITLE "8:cjc057_07038"
    INDEX 01 01:33:21
  TRACK 73 AUDIO
    TITLE "0:"
    INDEX 01 01:35:26
  TRACK 74 AUDIO
    TITLE "7:cjc057_07039"
    INDEX 01 01:36:29
  TRACK 75 AUDIO
    TITLE "0:"
    INDEX 01 01:37:64
  TRACK 76 AUDIO
    TITLE "8:cjc057_07040"
    INDEX 01 01:38:20
  TRACK 77 AUDIO
    TITLE "0:"
    INDEX 01 01:41:46
  TRACK 78 AUDIO
    TITLE "7:cjc057_07041"
    INDEX 01 01:42:49
  TRACK 79 AUDIO
    TITLE "0:"
    INDEX 01 01:43:68
  TRACK 80 AUDIO
    TITLE "8:cjc057_07042"
    INDEX 01 01:44:23
  TRACK 81 AUDIO
    TITLE "0:"
    INDEX 01 01:47:21
  TRACK 82 AUDIO
    TITLE "7:cjc057_07043"
    INDEX 01 01:48:28
  TRACK 83 AUDIO
    TITLE "0:"
    INDEX 01 01:49:43
  TRACK 84 AUDIO
    TITLE "8:cjc057_07044"
    INDEX 01 01:49:73
  TRACK 85 AUDIO
    TITLE "0:"
    INDEX 01 01:53:10
  TRACK 86 AUDIO
    TITLE "7:cjc057_07045"
    INDEX 01 01:54:15
  TRACK 87 AUDIO
    TITLE "0:"
    INDEX 01 01:55:34
  TRACK 88 AUDIO
    TITLE "8:cjc057_07046"
    INDEX 01 01:55:63
  TRACK 89 AUDIO
    TITLE "0:"
    INDEX 01 01:59:03
  TRACK 90 AUDIO
    TITLE "7:cjc057_07047"
    INDEX 01 02:00:04
  TRACK 91 AUDIO
    TITLE "0:"
    INDEX 01 02:01:13
  TRACK 92 AUDIO
    TITLE "8:cjc057_07048"
    INDEX 01 02:01:43
  TRACK 93 AUDIO
    TITLE "0:"
    INDEX 01 02:05:60
  TRACK 94 AUDIO
    TITLE "7:cjc057_07049"
    INDEX 01 02:06:65
  TRACK 95 AUDIO
    TITLE "0:"
    INDEX 01 02:08:37
  TRACK 96 AUDIO
    TITLE "8:cjc057_07050"
    INDEX 01 02:08:60
  TRACK 97 AUDIO
    TITLE "0:"
    INDEX 01 02:10:12
  TRACK 98 AUDIO
    TITLE "7:cjc057_07051"
    INDEX 01 02:11:14
  TRACK 99 AUDIO
    TITLE "0:"
    INDEX 01 02:12:44
  TRACK 100 AUDIO
    TITLE "8:cjc057_07052"
    INDEX 01 02:12:70
  TRACK 101 AUDIO
    TITLE "0:"
    INDEX 01 02:16:15
  TRACK 102 AUDIO
    TITLE "7:cjc057_07053"
    INDEX 01 02:17:22
  TRACK 103 AUDIO
    TITLE "0:"
    INDEX 01 02:18:51
  TRACK 104 AUDIO
    TITLE "8:cjc057_07054"
    INDEX 01 02:19:07
  TRACK 105 AUDIO
    TITLE "0:"
    INDEX 01 02:22:54
  TRACK 106 AUDIO
    TITLE "7:cjc057_07055"
    INDEX 01 02:23:58
  TRACK 107 AUDIO
    TITLE "0:"
    INDEX 01 02:24:73
  TRACK 108 AUDIO
    TITLE "8:cjc057_07056"
    INDEX 01 02:25:29
  TRACK 109 AUDIO
    TITLE "0:"
    INDEX 01 02:26:25
  TRACK 110 AUDIO
    TITLE "7:cjc057_07057"
    INDEX 01 02:27:28
  TRACK 111 AUDIO
    TITLE "0:"
    INDEX 01 02:28:43
  TRACK 112 AUDIO
    TITLE "8:cjc057_07058"
    INDEX 01 02:28:73
  TRACK 113 AUDIO
    TITLE "0:"
    INDEX 01 02:32:16
